<?xml version="1.0" encoding="UTF-8" standalone="no"?>
<!-- Created with Inkscape (http://www.inkscape.org/) -->

<svg
   width="48"
   height="48"
   viewBox="0 0 12.7 12.7"
   version="1.1"
   id="svg1"
   xml:space="preserve"
   inkscape:version="1.3.1 (91b66b0783, 2023-11-16)"
   sodipodi:docname="icon.svg"
   xmlns:inkscape="http://www.inkscape.org/namespaces/inkscape"
   xmlns:sodipodi="http://sodipodi.sourceforge.net/DTD/sodipodi-0.dtd"
   xmlns="http://www.w3.org/2000/svg"
   xmlns:svg="http://www.w3.org/2000/svg"><sodipodi:namedview
     id="namedview1"
     pagecolor="#ffffff"
     bordercolor="#999999"
     borderopacity="1"
     inkscape:showpageshadow="0"
     inkscape:pageopacity="0"
     inkscape:pagecheckerboard="0"
     inkscape:deskcolor="#d1d1d1"
     inkscape:document-units="px"
     inkscape:zoom="5.3950056"
     inkscape:cx="44.856302"
     inkscape:cy="-1.9462445"
     inkscape:window-width="1920"
     inkscape:window-height="1011"
     inkscape:window-x="0"
     inkscape:window-y="0"
     inkscape:window-maximized="1"
     inkscape:current-layer="layer1" /><defs
     id="defs1" /><g
     inkscape:label="Capa 1"
     inkscape:groupmode="layer"
     id="layer1"><path
       id="path1"
       style="fill:#ff6600;stroke-width:2.32255;paint-order:stroke fill markers"
       d="M 5.9754184,1.4194656 A 4.7181814,4.7181814 0 0 0 4.7581611,1.6815925 V 2.631442 c 0,0.1833608 -0.1476571,0.3310189 -0.3310188,0.3310189 h -0.087139 c -0.1833618,0 -0.3310192,-0.1476581 -0.3310192,-0.3310189 V 2.0181322 a 4.7181814,4.7181814 0 0 0 -0.018004,0.00889 4.7181814,4.7181814 0 0 0 -2.1987925,2.8675505 h -0.090736 c -0.3331878,0 -0.6015475,0.2681198 -0.6015475,0.601309 v 0.01584 c 0,0.3096948 0.2319313,0.5630062 0.5321751,0.5972224 a 4.7181814,4.7181814 0 0 0 -2.402e-4,0.00415 h 9.436322 a 4.7181814,4.7181814 0 0 0 0,-0.00415 c 0.300229,-0.03423 0.531935,-0.2875372 0.531935,-0.5972224 v -0.01584 c 0,-0.3331892 -0.26812,-0.601309 -0.601307,-0.601309 h -0.0905 A 4.7181814,4.7181814 0 0 0 8.7092565,2.027018 4.7181814,4.7181814 0 0 0 8.6910116,2.0181322 V 2.631442 c 0,0.1833608 -0.1476572,0.3310189 -0.3310189,0.3310189 h -0.08712 C 8.08951,2.9624609 7.9418539,2.8148028 7.9418539,2.631442 V 1.6815925 A 4.7181814,4.7181814 0 0 0 6.7245931,1.4194656 V 2.631442 c 0,0.1833608 -0.1476591,0.3310189 -0.3310198,0.3310189 h -0.087139 c -0.1833608,0 -0.3310189,-0.1476581 -0.3310189,-0.3310189 z M 1.6318441,6.5623811 a 4.7181814,4.7181814 0 0 0 2.3591408,4.0860079 4.7181814,4.7181814 0 0 0 4.7182812,0 4.7181814,4.7181814 0 0 0 2.3588999,-4.0860079 z" /></g></svg>
